<?xml version="1.0" standalone="no"?>
<!DOCTYPE svg PUBLIC "-//W3C//DTD SVG 20010904//EN"
 "http://www.w3.org/TR/2001/REC-SVG-20010904/DTD/svg10.dtd">
<svg version="1.0" xmlns="http://www.w3.org/2000/svg"
 width="211.000000pt" height="211.000000pt" viewBox="0 0 211.000000 211.000000"
 preserveAspectRatio="xMidYMid meet">
<metadata>
Created by potrace 1.14, written by Peter Selinger 2001-2017
</metadata>
<g transform="translate(0.000000,211.000000) scale(0.100000,-0.100000)"
fill="#000000" stroke="none">
<path d="M536 2028 c-32 -41 -22 -58 14 -23 l28 27 17 -26 c18 -27 35 -34 35
-16 0 17 -43 70 -56 70 -7 0 -24 -14 -38 -32z"/>
<path d="M560 1945 c0 -8 7 -15 15 -15 8 0 15 7 15 15 0 8 -7 15 -15 15 -8 0
-15 -7 -15 -15z"/>
<path d="M560 1885 c0 -8 7 -15 15 -15 8 0 15 7 15 15 0 8 -7 15 -15 15 -8 0
-15 -7 -15 -15z"/>
<path d="M560 1825 c0 -8 7 -15 15 -15 8 0 15 7 15 15 0 8 -7 15 -15 15 -8 0
-15 -7 -15 -15z"/>
<path d="M220 1020 l0 -750 560 0 560 0 0 25 c0 25 -1 25 -85 25 l-85 0 0 55
0 55 225 0 225 0 0 190 0 190 -25 0 -25 0 -2 -162 -3 -163 -282 -3 -283 -2 0
-25 c0 -24 3 -25 60 -25 l60 0 0 -55 0 -55 -422 2 -423 3 -3 133 -3 132 121 0
120 0 0 25 0 25 -120 0 -120 0 0 250 0 251 78 -3 77 -3 3 -197 2 -198 115 0
115 0 0 -130 0 -130 -125 0 -125 0 0 -25 0 -25 225 0 225 0 0 25 c0 24 -2 25
-75 25 l-75 0 0 130 0 130 173 -2 172 -3 3 -47 3 -48 -115 0 -116 0 0 -25 0
-25 310 0 310 0 0 205 0 205 -25 0 -25 0 0 -180 0 -180 -145 0 -145 0 0 75 0
75 -315 0 -315 0 0 175 0 175 115 0 115 0 0 25 0 25 -220 0 -220 0 0 175 0
175 90 0 c89 0 90 0 90 25 0 25 -1 25 -90 25 l-90 0 0 65 0 65 110 0 110 0 0
25 0 25 -135 0 -135 0 0 -750z"/>
<path d="M670 1745 c0 -24 3 -25 60 -25 l60 0 0 -65 0 -65 -95 0 -95 0 0 -95
0 -95 -85 0 c-84 0 -85 0 -85 -25 l0 -25 220 0 220 0 0 -129 0 -128 25 5 25 4
0 124 0 124 70 0 70 0 0 -185 0 -185 -215 0 -215 0 0 -25 0 -25 239 0 240 0 3
53 3 52 63 3 62 3 0 -129 0 -130 25 -4 25 -5 0 178 0 179 140 0 140 0 0 -25
c0 -20 5 -25 25 -25 l25 0 0 275 0 275 -25 0 -25 0 0 -225 0 -225 -165 0 -165
0 0 -45 0 -45 -65 0 -65 0 0 130 0 130 65 0 65 0 0 120 0 120 -25 0 c-25 0
-25 0 -25 -95 l0 -95 -270 0 -270 0 0 70 0 70 195 0 195 0 0 25 0 25 -100 0
-100 0 0 65 0 65 280 0 280 0 0 -189 0 -189 25 -4 25 -5 0 193 0 194 140 0
140 0 0 -375 0 -375 -85 0 c-84 0 -85 0 -85 -25 0 -25 1 -25 85 -25 l85 0 -2
-297 -3 -298 -107 -3 c-107 -3 -108 -3 -108 -27 l0 -25 135 0 135 0 0 750 0
750 -555 0 -555 0 0 -25z"/>
<path d="M1392 148 c-7 -7 -12 -24 -12 -38 0 -33 17 -50 50 -50 33 0 50 17 50
50 0 33 -17 50 -50 50 -14 0 -31 -5 -38 -12z"/>
</g>
</svg>
